<?xml version="1.0" encoding="UTF-8"?>
<svg version="1.1" viewBox="0 0 2048 1474" width="1280" height="1280" xmlns="http://www.w3.org/2000/svg">
<path transform="translate(1793,1)" d="m0 0h23l26 5 54 15 36 12 15 6 27 13 15 10 12 11 8 9 9 14 7 15 4 15 2 13v21l-2 14-5 17-9 16-11 14-11 12-33 33-8 7-10 10-8 7-8 8-8 7-43 43-9 11-9 10-12 16-8 11-9 15-15 28-12 27-10 26-7 23-5 26-3 36-5 51-6 39-7 36-7 29-10 35-13 37-16 39-16 34-12 23-7 11-1 3 2-1h17l42 3 67 6 69 7 43 5 25 5 21 7 17 8 16 11 13 12 12 16 9 16 7 18 5 15 4 17 2 18 1 15v18l-4 27-14 60-8 42-3 24-1 21 5 47v14l-1 14-5 22-5 12-12 21-12 16-7 7-11 7-17 8-19 7-33 9-14 3-8 1h-32l-70-6-97-6-98-4-131-4-169-4-135-4-82-2-125-2h-60l-83 1-101 2-263 7-145 5-98 5-118 8h-25l-11-4-19-12-5-4-1-7 5-34 7-44 10-76 4-39 3-37 1-20v-67l-3-53-5-67-5-60-1-16v-15l4-6 9-6 12-4 16-2h18l45 2 110 9 66 5 37 4 49 6 45 8 1-8v-11l-3-12-6-9-10-8-16-13-13-10-16-13-28-22-16-13-12-9-28-22-16-13-11-8-15-12-14-11-11-9-13-10-18-14-14-11-14-12-8-7-17-17-5-7 1-9 7-9 10-6 3-1h14l14 5 18 10 16 13 17 14 13 10 11 8 13 11 9 8 5 2 7-14 5-6 14-7 7-2 12 1 11 4 15 8 13 9 14 11 18 14 16 12 11 10 7 5h2l4-24 10-34 9-22 11-24 8-16 18-27-2-4-10-9-11-9-14-12-13-11-11-9-13-11-14-12-11-9-15-13-11-9-15-13-26-22-14-12-15-15-10-14-4-9v-8l6-9 6-4 6-2h13l18 6 7 2-5-10-19-19-9-11-9-13-2-3v-6l4-5 15-8 13-3h14l12 3 14 6 16 10 18 13 11 8 10 9 8 7 16 16 4 2-2-8-8-23-2-8v-8l3-6 3-10 8-10 19-10 30-13 27-11 30-11 36-12 25-8 43-12 49-12 53-11 46-8 61-8 44-4 38-2h87l37 2 44 4 38 5 47 8 45 10 37 10 36 11 43 15 34 13 26 11 17 8 15 9 13 12 7 11 3 10v10l-3 12-6 12-9 12-11 13-7 7-9 11-7 10-6 10-2 6 1 7 4 8 6 7 5 3h8l9-6 11-8 16-12 11-9 14-12 16-15 26-26 8-10 10-12 9-14 8-15 8-21 7-24 8-33 9-38 9-31 11-31 11-26 9-20 9-16 10-15 11-14 15-15 18-12 16-8 20-8 28-9z" fill="#74275C"/>
<path transform="translate(112,959)" d="m0 0h49l77 3 49 2 28 2 18 4 11 6 11 8 6 5 9-5 12-9 8-3 7-1h84l47 1 27 1 102 2 79 2 207 3 183 1 38 1 4 3 1 58 3 254 1 1h52l16-2 15-5 3-4 2-13 1-87 1-204 2-3h33l128-1 72-2 49-1 117-5 61-2 26-1 44-1h47l29 1 23 3 18 8 6 4 6 7 6 10 5 12 5 19 3 23 2 36v21l-5 2-20 1-47 1h-64l1 2 1 44h57l53-1h22l2 3-1 42-3 61-3 39-4 32-4 19-5 15-6 12-8 9-7 5-13 6-19 5-19 3-12 1h-65l-59-3-114-7-73-3-68-2-153-3-188-1-92-2-9-2-1-1-1-16-2-80-1-65v-48l1-10-4 4-13 38-13 43-5 25-3 21-2 25v27l2 17 5 17v6l-4 2h-48l-228-1-52-1-6-2-1-4 8-17 3-19 1-15-3-26-8-32-9-29-13-30-5-6h-2v100l-2 21-3 16-4 13-7 13-8 10-7 6-10 5-14 4-20 3-47 4-27 1h-24l-18-2-25-6-15-6-18-10-10-6h-6l-13 11-11 7-21 7-24 5-18 2-36 2-26 1h-99l-5-2v-9l4-25 2-24 2-35 1-32v-79l-2-41-3-43-4-51-4-80 1-17 4-10 6-4z" fill="#FEFDFD"/>
<path transform="translate(1793,1)" d="m0 0h23l26 5 54 15 36 12 15 6 27 13 15 10 12 11 8 9 9 14 7 15 4 15 2 13v21l-2 14-5 17-9 16-11 14-11 12-33 33-8 7-10 10-8 7-8 8-8 7-43 43-9 11-9 10-12 16-8 11-9 15-15 28-12 27-10 26-7 23-5 26-3 36-5 51-6 39-7 36-7 29-10 35-13 37-16 39-16 34-12 23-7 11-1 3 2-1h17l42 3 67 6 69 7 43 5 25 5 21 7 17 8 16 11 13 12 12 16 9 16 7 18 5 15 4 17 2 18 1 15v18l-4 27-14 60-8 42-3 24-1 21 5 47v14l-1 14-5 22-5 12-12 21-12 16-7 7-11 7-17 8-19 7-33 9-14 3-8 1h-32l-70-6-97-6-98-4-131-4-169-4-135-4-82-2-125-2h-60l-83 1-101 2-263 7-145 5-98 5-118 8h-25l-11-4-19-12-5-4-1-7 5-34 7-44 10-76 4-39 3-37 1-20v-67l-3-53-5-67-5-60-1-16v-15l4-6 9-6 12-4 16-2h18l45 2 110 9 66 5 37 4 49 6 45 8 1-8v-11l-3-12-6-9-10-8-16-13-13-10-16-13-28-22-16-13-12-9-28-22-16-13-11-8-15-12-14-11-11-9-13-10-18-14-14-11-14-12-8-7-17-17-5-7 1-9 7-9 10-6 3-1h14l14 5 18 10 16 13 17 14 13 10 11 8 13 11 9 8 5 2 7-14 5-6 14-7 7-2 12 1 11 4 15 8 13 9 14 11 18 14 16 12 11 10 7 5h2l4-24 10-34 9-22 11-24 8-16 18-27-2-4-10-9-11-9-14-12-13-11-11-9-13-11-14-12-11-9-15-13-11-9-15-13-26-22-14-12-15-15-10-14-4-9v-8l6-9 6-4 6-2h13l18 6 7 2-5-10-19-19-9-11-9-13-2-3v-6l4-5 15-8 13-3h14l12 3 14 6 16 10 18 13 11 8 10 9 8 7 16 16 4 2-2-8-8-23-2-8v-8l3-6 3-10 8-10 19-10 30-13 27-11 30-11 36-12 25-8 43-12 49-12 53-11 46-8 61-8 44-4 38-2h87l37 2 44 4 38 5 47 8 45 10 37 10 36 11 43 15 34 13 26 11 17 8 15 9 13 12 7 11 3 10v10l-3 12-6 12-9 12-11 13-7 7-9 11-7 10-6 10-2 6 1 7 4 8 6 7 5 3h8l9-6 11-8 16-12 11-9 14-12 16-15 26-26 8-10 10-12 9-14 8-15 8-21 7-24 8-33 9-38 9-31 11-31 11-26 9-20 9-16 10-15 11-14 15-15 18-12 16-8 20-8 28-9zm31 31-26 3-25 6-16 7-16 10-11 9-7 6-9 11-6 8-10 15-8 14-9 16-10 26-6 18-8 34-12 42-14 37-9 21-10 20-14 24-9 12-22 28-6 7-8 10-13 15-7 7-7 8-22 22-11 9-13 11-13 10-18 13-16 12-11 7-27 18-11 7-11 8h-4l-13-10-9-8-11-8-19-14-20-13-25-15-16-9-21-10-19-8-24-9-35-12-36-9-47-9-37-5-19-2-21-1h-19l-43 1-39 4-33 5-26 5-38 10-26 8-31 11-32 13-19 9-22 12-24 15-15 10-17 13-6 5h-2l-4-5-5-1-9-8-20-14-18-13-12-9-18-13-15-11-40-28-54-39-13-10-14-11-19-14-16-9-7-3-3 1 15 15 11 9 14 12 11 9 13 11 16 13 13 11 11 9 15 13 10 8 11 9 14 11 13 11 14 11 10 9 14 11 16 13 11 9 12 12-2 5-12 12-8 4-5-1-14-10-13-10-18-13-11-8-19-14-16-12-9-6-14-10-13-10-12-9-14-10-10-7-12-9-10-7-18-13-13-8-5-1 3 5 9 10 7 8 8 7 14 12 10 8 13 11 11 9 16 13 28 22 13 11 17 13 13 11 9 7 15 12 14 11 7 6h2l-1 6-9 10-12 16-10 17-12 22-11 23-10 27-6 23-5 22-4 21-2 18-12-12-8-6-11-9-19-14-13-9-34-25-12-9-14-10-16-8h-2l2 5 21 21 28 22 10 8 16 13 17 13 16 13 11 10 14 11 6 4 2 7 2 21v12h-3l-10-8-11-8-15-11-17-13-13-10-15-11-20-14-17-13-13-10-15-11-16-12-15-12-17-13-17-12-18-14-16-12-19-14-13-10-11-7-12-6-4 1 7 9 8 7 7 7 11 9 14 12 13 10 9 7 21 16 16 12 16 13 20 15 13 10 15 12 13 10 18 14 10 8 16 13 17 13 42 33 16 13 9 8 6 8 8 16 9 17 1 6-51 1-26 1-29 3-10 4-5 3h-9l-16-3-25-5-19-2-34-2-104-3-65-2-41-3 2 12 3 17 4 51 1 16 1 43v45l-1 59-3 64-6 79-7 67-6 47v10l1 1h25l81-4 68-3 109-6 155-6 101-6 80-3 52-1 127-1h71l176 1 178 3 127 3 109 3 135 4 125 4 57 3h56l23-2 23-4 15-5 15-8 10-9 4-8 4-14 2-16 2-33 3-88 4-85 2-87v-16l-2-23-5-18-8-16-9-12-11-12-14-11-15-9-17-8-15-4-22-3-21-1-84-1h-151l1-2 6-2 9-11 7-10 14-22 14-26 9-21 9-27 5-22 3-19-4-4h-7l-3 5-18 63-7 19-10 21-21 35-8 14-3 7-2 1-14 1h-139l8-16 5-12 9-36 4-23 2-19 1-17v-26l-3-25-5-28-5-19-11-29-12-25-16-27-10-15-14-19-13-16-7-7-4-6v-3l14-6 10-8 17-11 16-11 28-21 11-9 10-9 11-9 12-10 11-7 14-8 4-2h14l18 3 27 9 30 13 23 10 16 8 10 7 1 3v41l3 1 2-1v6l2 1 4-13 6-27v-2l15 2 1 1-1 22-8 69-2 29v5l5 3 8 2 5-1 4-26 5-42 6-37 14-48 8-21 9-20 15-30 13-23 21-30 11-14 9-12 11-13 9-11 12-12 4-5 8-7 15-14 16-14 15-14 20-20 8-10 11-15 12-18 7-14 7-21 2-14v-15l-3-14-5-12-6-10-12-14-10-10-13-10-24-13-19-8-13-4-25-5-18-2z" fill="#FDFCFC"/>
<path transform="translate(608,990)" d="m0 0 63 1 5 1 2 5 7 36 12 58 16 74 9 40 4 9 3 3 3-3 2-5 10-50 7-38 8-39 9-47 8-37 4-4h56l6 1 3 11 5 25 12 56 8 39 12 57 6 26 6 10 2-1 4-16 8-38 6-33 9-41 14-68 4-21 5-6 2-1h30l30 1 1 5-11 43-11 47-14 61-10 43-8 34-13 56-7 30-5 22-2 14-8 2h-56l-6-1-7-30-14-63-17-75-6-22-4-6h-3l-3 7-6 31-14 60-10 44-9 40-3 15-2 1h-63l-5-3-7-29-11-51-13-57-7-30-16-66-22-98-6-23z" fill="#040303"/>
<path transform="translate(128,974)" d="m0 0h29l94 3 30 3 13 4 13 9 10 11 7 11 5 11 4 14 2 15 1 15v23l-3 21-6 20-13 24-4 5 1 9 5 14 8 21 5 18 3 18 1 10v44l-4 22-5 15-6 11-8 10-10 6-11 3-20 2-36 1h-105l-1-14v-377z" fill="#050304"/>
<path transform="translate(417,985)" d="m0 0h72l37 2 14 2 11 4 9 6 6 7 4 8 1 18v268l-1 21-2 13-5 10-7 6-12 5-16 3-30 2-59 1-27-1-16-4-11-8-6-9-3-10-1-11v-206l1-98 3-10 7-8 10-6 9-3z" fill="#050404"/>
<path transform="translate(1821,46)" d="m0 0h28l22 3 21 6 18 8 18 10 13 11 8 7 9 10 8 13 4 9v28l-2 12-8 21-12 20-10 14-9 11-11 12-15 16-31 31h-2l-2 4-8 7-43 43-5 3-9-1-43-15-36-12-34-11-31-9-5-3 1-10 9-24 8-25 15-51 7-23 11-29 8-16 11-18 10-12 7-8 9-8 14-9 13-6 23-6z" fill="#FDFCFC"/>
<path transform="translate(59,933)" d="m0 0 14 1 27 2 169 5 34 2 1 3-14 1-8 1h-20l-33 1-1 3-6 1h-3l-5 1-2-2-3 2h-15-3-5l-1 2-4-1-2 1-6-2-1 2h-3l-1 2h11v1l-67-1v2l-9 3-4 4-3 8-1 17 4 80 4 51 4 60 1 24v79l-2 51-2 31-4 29-1 5v9l4 1h99l45-2 27-2 24-4 21-6 10-4 11-8 11-9h6l14 8 16 9 16 6 22 5 18 2h24l42-2 40-4 20-4 13-5 8-6 7-8 8-14 3-7 4-17 2-15 1-13v-100h4l5 6 14 33 9 29 7 29 3 26-2 23-3 14-7 14v4l6 1 52 1 228 1h48l3-1-1-10-4-13-2-17v-27l2-25 4-27 5-23 14-45 11-32 5-5 1 4-1 7v48l1 65 2 80 1 16 9 2 92 2 188 1 2 2h-121l17 1 16 2 39 2 11 1h14l19 1 24 1 17 2h7l2 1-2 4-3 1-2-1h-12l-5 1h-26l-12 2-1 2 18 2v1h-40l-178-3-176-1h-71l-127 1-53 1-79 3-101 6-155 6-127 7-73 3-58 3h-25l-1-1v-10l7-56 6-58 6-79 3-64 1-59v-45l-1-43-3-45-3-30-4-18z" fill="#74275C"/>
<path transform="translate(1630,984)" d="m0 0h14v78l-1 297h-25l-31-2-6-3-7-8-8-15-10-25-14-38-17-42-19-47-6-11-4-5-2-1 1 31-1 157v5l-1 1-51-1-15-1-1-349v-13l2-1h57l7 1 6 7 8 23 8 20 12 33 15 40 13 34 10 28 6 11 2 2 2-5v-197l1-1 34-2z" fill="#040303"/>
<path transform="translate(1824,32)" d="m0 0h20l25 3 26 6 26 11 22 12 10 8 10 9 13 14 7 11 5 11 3 10 1 7v15l-2 14-7 21-8 16-7 10-12 17-8 10-11 12-21 21-24 21-7 7-8 7-9 8-7 8-9 9-11 14-11 13-8 11-10 13-11 16-10 15-15 28-14 28-10 25-7 21-8 28-3 13-6 37-6 51-2 11-5 1-11-3-2-2 1-24 7-62 3-30v-9l-1-1-15-2-5 25-3 12-2 5-2-1v-6l-3 1-2-1v-41l-3-5-11-7-26-12-26-11-20-8-15-5-16-4-8-1h-16l-4-2 2-5-12 2-7 7-5 2v2l-7 4-3 1-1 3-4 3-5 1-3 1 2-4 10-9 8-7 22-22 7-8 10-11 9-11 8-10 10-12 13-17 11-15 15-27 13-27 15-40 5-15 9-32 9-38 12-33 8-16 10-18 12-18 8-10 11-13 14-11 16-10 16-7 25-6zm-3 14-21 3-23 6-17 8-12 9-10 9-10 12-9 13-9 16-6 12-12 33-15 51-11 36-12 34v6l5 3 31 9 49 16 47 16 17 6 9 1 8-6 46-46 4-3v-2l4-2 38-38 7-8 7-7 11-14 9-12 10-16 7-14 6-18 1-8v-28l-8-16-9-12-10-10-14-11-10-6-17-9-19-7-17-4-17-2z" fill="#74285C"/>
<path transform="translate(1392,862)" d="m0 0h6l7 5 9 11 11 14 5 7 10 21 3 9-1 5-3 1 1 5 3 2v6l5 1 2 4 5-5v-4l142-1 7 1 2-1h8v2l6-1v-1h13v2l16-1h220l22 3 15 4 21 10 15 10 13 11 10 11 10 15 7 17 3 12 2 23v16l-2 87-4 85-3 88-3 43-4 17-4 9-7 8-11 7-13 6-15 4-26 4-15 1h-56l-57-3-404-12-44-1-21-2-7-2 3-3 16-2h23l10-1h8 3l2-3-21-1-9-1-26-1-22-1h-11l-9-1-35-2-16-2-17-1-5-1v-1h172l105 2 68 2 73 3 130 8 43 2h65l21-2 23-5 13-5 10-6 6-5 7-10 6-15 5-20 4-28 3-33 3-55 1-22 1-42-1-2h-22l-53 1h-54l-3-1-1-3-1-43 2-1h62l47-1 20-1 5-1-3-57-3-23-5-19-5-12-6-10-7-8-19-9-16-3-10-1-29-1-58-1h-64l-52 1-44 2-32 2h-24v-2l-3 1-16-1-10-1-19-1h-13l-14-2h-7l-3-1v2l-11-2-1 2v-2l-3 1v-2h-12l-11-6 2-2-4-4-4-5-18-1-5-1v-2l-5-2-5-5-5-10v-14l-3-11-3-15-6-12 1-9z" fill="#060505"/>
<path transform="translate(1726,983)" d="m0 0h149l13 1 4 6 1 12v46l-1 23-2 1h-59l-1-3v-28l-1-10-1-4-6-2-9-1h-14l-15 1-9 3-10 8-1 2-1 9v57l1 196 2 9 3 6 3 2 7 1 35-1 26-2-8-33-16-64-6-26-5-13v-2l10-2 79 1 1 1v41l-1 103-2 21-4 11-6 7-8 4-13 3-18 2h-42l-43-2-18-2-15-4-11-7-6-5-5-8-4-16-1-28v-82l1-208 4-12 4-6 6-4z" fill="#050303"/>
<path transform="translate(1056,995)" d="m0 0 62 1 1 7v277l2 16 5 8 6 3 5 1 15 1h25l66 1 9 1v10l-6 29-3 2-5 1-66 1h-105l-12-1-1-1v-356z" fill="#050304"/>
<path transform="translate(1e3 219)" d="m0 0h12l46 5 12 2 3 2v52l-2 15v9l6-1 15-37 8-19 6-15 1-1h10l57 6 5 2-3 17-15 71-7 36-6 31-1 9-14-2-36-6-1-1 1-11 6-27 5-22 3-18-4 1-12 33-9 22-5 12-3 8h-13l-23-3-5-1 1-7v-68l-4 1-8 45-3 26-1 1h-11l-37-3-1-1 1-23 5-35 13-72z" fill="#060404"/>
<path transform="translate(1343,991)" d="m0 0h21l1 2-1 216-1 145h-51l-16-1v-359l5-2z" fill="#040303"/>
<path transform="translate(59,933)" d="m0 0 14 1 27 2 169 5 34 2 1 3-14 1-8 1h-20l-33 1-1 3-6 1h-3l-5 1-2-2-3 2h-15-3-5l-1 2-4-1-2 1-6-2-1 2h-3l-1 2h11v1l-67-1v2l-9 3-4 4-3 8-1 17 3 64 1 36 4 50 4 68v45l-1 30v16l-1 19h-3l1 12v19l-1 18-2 8v5h-2v2l2 1-1 3h-2l-1 11h-2l3 12v2l11 2h20l2-1h13v2l5 1 1 5-6 1h-4l-1 3h-7v2h-5v3l4-2 3 1 2 3-2 3 11 1v1l-10 1-46 2h-40v-15l8-67 5-51 5-68 3-64 1-59v-45l-1-43-3-45-3-30-4-18z" fill="#B52587"/>
<path transform="translate(439,1028)" d="m0 0h63l6 2 1 2v285l-3 2-9 1h-57l-2-2-1-12 1-248z" fill="#FEFDFD"/>
<path transform="translate(738,252)" d="m0 0h8l8 2 8 7 8 14 16 36 11 25 11 28 13 29v4l-20 10-29 9-48 12h-12l-6-3-9-14-8-17-22-48-15-31-9-23-3-4 1-3 11-8 14-7 33-10 25-6z" fill="#060404"/>
<path transform="translate(894,225)" d="m0 0h24l12 4 5 5 4 9 6 25 1 11-5 2-20 2h-29l-5-7-7-21h-5l-3 1-2 7 1 11 4 10 4 4 6 2 32 4 11 3 19 2 3 4 4 31 3 26v15l-2 7-14 5-23 3-44 4h-29l-8-9-5-14-5-24-1-13-1-5 5-2 26-2 23 1 2-2 3 15 2 17 3 7 7 3h4l1-2v-14l-5-22-4-6-3-2h-5l-2 3h-2v-6h-9l-20-3-20-2-8-4-5-15-5-25-2-17 5-9 6-5 13-5 19-3z" fill="#060505"/>
<path transform="translate(1332,290)" d="m0 0 12 1 19 5 25 11 16 8 13 7 10 9 5 7-1 7-7 11-10 13-11 13-5 4-3-2v-2l-9-3-26-11-5-5 1-7 12-17 3-5v-9l-9 6-6 5-8 10-10 12-22 28-11 12-10 15-5 10 1 3 5 1 13-11 8-9 8-11 6-6 10 3 14 7 13 5 8 5 2 4-4 6-5 5-7 9-9 11-12 13-8 6-3 1h-11l-18-5-18-8-29-14-21-13-2-3v-6l6-12 7-11 14-18 10-13 9-11 13-16 12-16 8-10 11-12 8-6z" fill="#050404"/>
<path transform="translate(579,304)" d="m0 0h8l9 3 9 7 4 5 11 17 6 10 1 6-12 5-22 8-4 2h-6l-5 2-7-11-7-9v-2l-10-4-4 1 3 10 11 16 8 10 10 13 7 11 9 12 7 9 12 12 10 5 1-7-5-10-11-14-9-10-2-5 18-7 19-8 6-3 6 1 7 6 9 13 11 16 8 14 4 6-2 4-11 8-25 13-27 12-25 8-4-1-4 1-10-4-10-9-12-14-14-19-8-10-12-16-14-19-13-18-9-15-1-7 10-10 8-6 28-13 19-8 18-6z" fill="#050304"/>
<path transform="translate(1392,862)" d="m0 0h6l7 5 9 11 11 14 5 7 10 21 3 9-1 5-3 1 1 5 3 2v6l5 1 2 4 5-5v-4l142-1 7 1 2-1h8v2l6-1v-1h13v2l16-1h127l1 5 6 3v2l9 2-1 3-5 1-2-3h-5l-1 2h2l1 3-9 1h-5l-3-1-4 1-8 1 33 1v1l-117 2-44 2-32 2h-24v-2l-3 1-16-1-10-1-19-1h-13l-14-2h-7l-3-1v2l-11-2-1 2v-2l-3 1v-2h-12l-11-6 2-2-4-4-4-5-18-1-5-1v-2l-5-2-5-5-5-10v-14l-3-11-3-15-6-12 1-9z" fill="#090308"/>
<path transform="translate(1235,255)" d="m0 0 9 1 20 6 13 3 8 4-2 10-12 23-9 16-14 27-12 22-8 15-9 19-4 8-4 11-13-1-30-9-11-4-1-3 5-1 16-34 43-86 8-18 6-8z" fill="#060405"/>
<path transform="translate(1418,788)" d="m0 0h9l22 3 15 4 7 5 4 2 1 2 4 1 1 6v23l-1 21-6 32-7 27-5 12-7 13-4-1v-12l-6-21-5-14-9-16-6-8-2-1-1-5-3-1-7-8-7-6-2-1v-2l-4-1-16-9-4-2-5-10-5-6 2-4 11-6 8-7 4-3 6-2 4-2h7v-2z" fill="#1D071D"/>
<path transform="translate(210,1024)" d="m0 0h15l20 1 12 3 5 4 2 7v93l-3 8-5 5-16 3h-28l-9-3-6-8-2-6-1-7v-45l1-34 2-15 5-5z" fill="#FEFDFD"/>
<path transform="translate(209,1196)" d="m0 0h41l9 3 4 8 1 12v89l-2 4-9 4-15 3h-28l-9-3-4-6-2-9-1-11 1-68 1-17 6-7z" fill="#FEFDFD"/>
<path transform="translate(1624,353)" d="m0 0 9 3 14 6 28 10 23 8 16 6 20 8 4 5-6 11-10 16-4 7-6 11-8-1-26-9-40-14-29-9-11-3-3-2v-8l6-11 6-8 10-17 6-8z" fill="#FEFDFD"/>
<path transform="translate(1185,1394)" d="m0 0h172l105 2 68 2 29 1v1h-30l2 3 26 5 6 3-1 3-13 3-31 3-1 2 17 1v1h-27l-144-4-44-1-21-2-7-2 3-3 16-2h23l10-1h8 3l2-3-21-1-9-1-26-1-22-1h-11l-9-1-35-2-16-2-17-1-5-1z" fill="#1C0710"/>
<path transform="translate(1904,52)" d="m0 0 3 1h16l20 11 10 8 10 9 13 14 7 11 5 11 3 10 1 7v15l-2 14-7 21-8 16-7 10-12 17-8 10-11 12-21 21-24 21-7 7-8 7-9 8-7 8-9 9-11 14-1-2 1-3h2l2-5 12-13 7-8 6-7v-2l-3-1 5-5v-4h-2l-2 4-2 1v-5h3l1-6 8-7 33-33 7-8 7-7 11-14 9-12 10-16 7-14 6-18 1-8v-28l-8-16-9-12-1-3 1-2h-2l-3-5-4-6-6-5v-2l-5-2-8-6-5-3-5-2-10-5z" fill="#453E42"/>
<path transform="translate(1409,612)" d="m0 0 5 3 9 13 11 17 15 26 11 23 10 27 6 23 5 31v18l-2-1-3-7-7-3-12-6-9-2-6-2-20-3-37-3-48-3-9-3 4-2 7-3h15l4 1 11-3 4-3 11-2 6-3h3v-2l18-3 19-3 9-11 2-25 1-15-1-6 1-2-2-9-4-7-7-14-7-10-4-10-2-6-7-7z" fill="#1E081E"/>
<path transform="translate(1090,689)" d="m0 0 2 3 3-2h5l3 3 8 3 6 3 5 2 8 6 6 3h8l7 3v2l8-1 4 1 5-1 5 2h11l5 1 12-1 2-3 1-5 2 3v10l-7 11-2 3-2 4-9 7-6 3-4 5-9 5-16 3-15-3-13-6-9-5-12-11-6-8-7-12-4-14v-2h2l1-9z" fill="#515152"/>
<path transform="translate(915,466)" d="m0 0h2l-1 6 3 1 1-2 6 3v2l6 2 10-1v2l6 1 6 3 5 3 5-1 11 3 12 1 6 3 7 1 2 1v-2l6-1 8-4 11-3 8-1 1 6-3 10-8 7-14 8-18 8-12 3-17 1-20-2-20-7-15-10-9-8-3-7 1-9 4-6 5-5z" fill="#515152"/>
<path transform="translate(1392,862)" d="m0 0h6l7 5 9 11 11 14 5 7 10 21 3 9-1 5-3 1 1 5 3 2v6l5 1 2 4 5-5v-4h13l6 3 14 3 23 2 8 1v3l-12 1-5 2 5 1h16l6-1h20l17 3 3 1h71l9 1v3l-4 2-53 3h-24v-2l-3 1-16-1-10-1-19-1h-13l-14-2h-7l-3-1v2l-11-2-1 2v-2l-3 1v-2h-12l-11-6 2-2-4-4-4-5-18-1-5-1v-2l-5-2-5-5-5-10v-14l-3-11-3-15-6-12 1-9z" fill="#1C061C"/>
<path transform="translate(1139,664)" d="m0 0h14l14 4 14 9 12 11 6 9v2h2l3 6v8l-3 4-15 1-2-1h-11l-7-2-4 1-4-1h-7v-2l-8-2h-7l-11-6-6-5-4-1-8-4-7-3v-2l-7 2h-3l2-5 3-1v-2l12-9 10-5 17-5z" fill="#70696D"/>
<path transform="translate(1459,805)" d="m0 0 8 1 4 2 3 3 3 24 1 17v15l-5 24-7 26-10 21-4 1-1-4v-9l-6-21-5-14-9-16-1-1 1-10h6l5-10 2-8v-6l3-11 1-7 4-3 1-8z" fill="#0A0409"/>
<path transform="translate(1266,613)" d="m0 0h21l12 5 2 1v2l6 2 11 8 7 6 5 6 2 9-1 7-4 4-13-1-6-1-3 2h-19l-10-3-2-2-8-3-1-1-7-1-6-5-6-2-4-2-10-1-1 2h-4l1-5 6-8 8-8 7-5z" fill="#70696D"/>
<path transform="translate(964,449)" d="m0 0h14l16 3 13 5 13 8 13 13 2 5-1 1-14 3-11 4-5 2-2-1v2l-12-2-3-2-12-1-12-3-4 1-5-3-8-4-4-1v-2l-6 2-6-1-4-2v-2l-5-1h-2l-4-1 1-4 1-3 11-7 4-2 14-3 11-3z" fill="#70696D"/>
<path transform="translate(1052,1391)" d="m0 0h21l48 1 188 1 2 2h-121l17 1 16 2 39 2 11 1h14l19 1 24 1 17 2h7l2 1-2 4-3 1-2-1h-12l-5 1h-26l-12 2-1 2 18 2v1h-40l-59-1v-1l17-1-25-3-6-3-4-1-3-3-5-1-8-1-11-2h-17l-22-1h-16l-9-1-22-1h-7l-13-3-6-1z" fill="#732A5C"/>
<path transform="translate(334,424)" d="m0 0 9 3 16 11 12 9 10 7 28 20 28 21 15 11 10 7 14 10 21 16 12 8 28 21 9 7-2 2-5-3v-3h-3l-3-3-8-4-1-2-5-3-5-4-5 1-7-2h-5-4-4l-5-3-5-4h-4l-17-14-16-13-14-11-16-13-22-18-13-11-11-9-11-10-5-4-7-8-8-9z" fill="#74295C"/>
<path transform="translate(1679,776)" d="m0 0h7l4 4-3 19-5 22-10 30-11 24-12 22-13 20-14 19-3 3-5 1-1 2h151l84 1v1l-199 1-17 1-3-2h-8v1h-7v-2l-11 2-7-1h-136v-1l133-1 14-1 2-1 8-16 16-27 10-17 9-19 10-30 9-33 6-20z" fill="#732C5C"/>
<path transform="translate(338,354)" d="m0 0 6 1 17 9 18 13 14 11 18 14 14 10 17 12 16 12 19 13 14 10 20 14 19 14 16 12 18 13 20 14-2 1-5-2-5 1-6-5-1-4-3-3-7-3-8-6v-2l-6-2-10-5-3-2v-2l-2-1-2-2-4-1v-2l-7-2v-2h-3l-4-4-2-1v-2l-7-1-6-3v-2l-7-2-1-3-3 1h-2l-3 1v-2l-4-1-1 2 2 1-2 1-14-11-10-9-11-9-14-12-14-11-14-12-11-9-13-11-11-9-13-12-7-7z" fill="#732A5B"/>
<path transform="translate(470,462)" d="m0 0 6 1v2h2l1-2 4 1 3 3 5 2v2h4v2l9 2v2l5 2 1 3h3l2 2 5 2v2l5 1 3 3v2l5 2 14 7 5 5 6 4 5 2 4 5 1 3 7 4 1-2 4 1 8 4 10 8v2l5 2-1 5-10 9-7 4-6-1-12-12-20-16-14-11-15-13-9-7-17-14-16-13-5-4z" fill="#1A060F"/>
<path transform="translate(1536,455)" d="m0 0 2 2h-2l1 3 1 1 1 3-13 7-11 7-14 11-10 9-11 9-9 8-20 15-11 8-16 11-21 14-3 3-4-2h-7l-2 1-2-1-1 2h-5l-5-1 4-4 1 2 5-2 3-3 2 1 1-2 2 1 1-6 6-7 17-11 15-10 14-10 18-13 15-12 9-7 12-4 8-7 3-2h3v-2l5-3 7-7z" fill="#B22585"/>
<path transform="translate(1028,1392)" d="m0 0h34l-1 2 14 3h14l18 1 6 1h24l21 1h10l10 2 8 1 6 2 3 3 5 1 4 2 26 3-1 2h-17l-81-2-60-1-2-2-9-2-3 1-3-3v-1h5v-2h-6l-1-1-8-1v-2h-6l-10-4z" fill="#3D0425"/>
<path transform="translate(1596,943)" d="m0 0 8 1 2-1h8v2l6-1v-1h13v2l16-1h37l-1 2-26 2-8 1h-5v1h-13l-3 2h-8l-2 2-14 2-4 1-17 2v2l10 2v1h-27l-13-3-6-1h-20l-6 1h-16l-6-1 3-3 3-1 12-1v-1l-15-2-16-1-17-4-3-3z" fill="#17030B"/>
<path transform="translate(320,703)" d="m0 0 9 3 13 8 17 12 10 8 14 10 19 14 17 12 11 8 22 18 7 8 2 5-1 5-3 4-4-1-9-7-14-12-12-10-13-10-16-13-10-8-14-11-13-10-13-11-18-18z" fill="#712B5B"/>
<path transform="translate(902,477)" d="m0 0h3v2h2l4 5v2l4 2 2 4 5 2 7 4 8 5 11 4 11 2h29l6-2 9-1 25-11 5-3 2 1-3 7-10 8-17 9-15 6-9 2-17 1-20-2-20-7-15-10-9-8-3-7 1-9z" fill="#040203"/>
<path transform="translate(1978,165)" d="m0 0 1 4v10l-2 2-1 4-6 1-5 9v6h2v3h-2l-1 4-2 4h-2l-1 2v-9h-2v2l-3 3-2 5-5 2-2 7-3 4h-2l-1 4-2 1 1 5-3 4h-2v2h-2l-2 4-7 8-5 5-7 6-1 3-7 6-14 14h-2l-1 3h-2l-2 4-3 3-3 1-5 5v-2l-3-1 5-5v-4h-2l-2 4-2 1v-5h3l1-6 8-7 33-33 7-8 7-7 11-14 9-12 10-16 7-14 1-3h3l2-5 4-2z" fill="#443E41"/>
<path transform="translate(1800,66)" d="m0 0 5 1 2 4-3 5-16 9-10 7-10 8-13 13-8 11-8 13-5 6-5 12-5 8-2 2h-3v-7l-4 7h-2l1-8 4-15 12-26 9-13 13-13 14-9 16-8 15-6z" fill="#70696D"/>
<path transform="translate(705,284)" d="m0 0 5 1 5 3 4 5 14 29 15 33 13 28 2 8v4h-3v-3h-3l-3-3 1 6-5-2-7-8-8-15-5-13-7-14-11-26-8-20-1-9z" fill="#FEFDFD"/>
<path transform="translate(1226,648)" d="m0 0 5 5 4 1v2l4 2 3 2v3l5 2 4 4 15 6 1 1h8l3-1h9l9 2h10l11-2 12-6 3-4 1-14 2 3 1 10-4 10-5 4h-2v2l-11 5-8 2-21 1h21l14-3 4 1-6 4-5 3-16 5-18 2-12-2-8-4-11-8-7-7-8-11v-2l4 2v-1l-3-3-4-2-4-9z" fill="#443A40"/>
<path transform="translate(1232,642)" d="m0 0 10 1 5 3 7 2 4 4 7 1 5 3 5 2 12 4h18l4-2 12 2h8l2-6-1-12 3 4v17l-4 5-12 6-11 2h-10l-9-2h-9l-6 1h-5l-8-4-8-3-4-3v-2l-5-2v-3l-4-2-4-4-5-1-3-5v-3h5z" fill="#515152"/>
<path transform="translate(1990,127)" d="m0 0h1l1 7v15l-2 14-7 21-8 16-7 10-12 17-8 10-11 12-21 21-24 21-7 7-8 7-9 8-7 8-9 9-11 14-1-2 1-3h2l2-5 12-13 7-8 6-6 2-4h2l1-3 5-3 6-7 8-7 5-5h2l1-3h2l2-4 3-1 1-4 8-7 2-3h2l2-4 7-8h2v-2h2l2-4 1-4-2-1 3-1 1-4h2l2-4 3-7 5-2 1-5 2-3h2v-2l3-1v8l2-1 3-7h2l-3-3v-6l6-10h6l1-5 1-1v-10l2-4 4-9 1-4h2l1-5 1-2z" fill="#525253"/>
<path transform="translate(1085,701)" d="m0 0h2l4 10 3 5v2h2v2l4 2 13 8 5 2 7 4 9 4 9 3 16 2 14-1 17-6 5-3h2l-2 4-9 7-6 3-4 5-9 5-16 3-15-3-13-6-9-5-12-11-6-8-7-12-4-14z" fill="#0C0309"/>
<path transform="translate(1171,1013)" d="m0 0 4 8 1 10-1 1 1 10v31l2 33v12l1 18-1 4 2 1h-2l2 11-1 4 1 4v9 4 45l1 5-1 6v22l-2 5h-2l-1 4-2-5v-56l-2-127z" fill="#3D0425"/>
<path transform="translate(479,546)" d="m0 0 7 6 3 1 2-1v2l5-2 2 1 8 1 7 2 1-2 7 6 4 2v2l10 4 1 3h3v3l6 2 4 1 5 5 2 5-7 8-5 4-6-2-14-11-16-13-14-11-16-13z" fill="#19050E"/>
<path transform="translate(1087,695)" d="m0 0 2 4 5 8 5 2 10 9 4 1 15 9 10 1h15l6 2h11l3 2 10-1 1-1 9-2 6-2 4-5 1-2 1-9h1v10l-7 11-4 2-1 3-12 5-9 3-16 1-14-2-15-5-10-6-14-7-8-6v-2h-2l-7-14z" fill="#473942"/>
<path transform="translate(1459,805)" d="m0 0 8 1 4 2 3 3 3 24-1 4-2-1v-2l-7 2-5-5-5-1-3 5-2 17-7 14-2 7-3 3-2 5-1 3-6-11-1-1 1-10h6l5-10 2-8v-6l3-11 1-7 4-3 1-8z" fill="#17030B"/>
<path transform="translate(532,513)" d="m0 0 5 1 8 6 10 3h9l9 7 14 7 7 1 9 3-1 5-10 9-7 4-6-1-12-12-20-16-14-11-3-5z" fill="#080607"/>
<path transform="translate(1139,664)" d="m0 0h14l14 4 14 9 12 11 7 11v4l-5-2-10-5-13-8-8-4-9-3-12-3-16-5-9-1 3-3 13-4z" fill="#FEFDFD"/>
<path transform="translate(909,470)" d="m0 0h3l-1 8 1 5 6 2h4l4 4 12 5h5l4 2 8 1 3 1h8l10 2 3 2 15 1 12-2 13-6h3l1-3 10-5h3l-1 4h-2v2l-16 8-14 6-13 2-4 1h-27l-11-2-11-4-8-5-7-4-5-3-4-5-3-3v-2l-3-1v-2h-2v-3l-2-1z" fill="#473942"/>
<path transform="translate(1529,1400)" d="m0 0h54v1h-16v2l9 3 13 3 15 2 5 2-1 3-16 2-31 2-13 2h-2l-1 2h19v1h-23l-7-1-17-1-2-2 3-2 31-3 13-3v-2l-9-3-22-4z" fill="#0D060B"/>
<path transform="translate(964,449)" d="m0 0h14l16 3 13 5 13 8 9 9 1 3-6-2-12-5-13-3-11-1-9-2-10-1-4-1-23-2-9-2 3-2 21-6z" fill="#FEFDFD"/>
<path transform="translate(1278,614)" d="m0 0 15 3 14 6 11 8 6 7 2 5-6 2-6-1-22-11-11-4-6-2-9-2-8-1h-7l-9 3 4-4 8-4 10-3z" fill="#FEFDFD"/>
<path transform="translate(415,772)" d="m0 0h7l8 6 22 18 7 8 2 5-1 5-3 4-4-1-9-7-14-12-12-10-13-10-2-4 7-1 4 2z" fill="#170E15"/>
<path transform="translate(1233,666)" d="m0 0 4 2 10 6 11 4 13 7 14 3h21l14-3 4 1-6 4-5 3-16 5-18 2-12-2-8-4-11-8-7-7-8-11z" fill="#1C061C"/>
<path transform="translate(902,477)" d="m0 0h3v2h2l4 5v2l4 2 2 4 5 2 7 4 8 5 11 4 11 2h29l6-2 9-1 25-11 5-3 2 1-2 6-5 1-18 7-10 4-10 5-8 2-9 1-2-1h-8l-7-2-7-3-10-3-13-4-10-8-5-7-5-2-1-5-6-1 2-5z" fill="#0B0308"/>
<path transform="translate(884,319)" d="m0 0 7 1 5 6 3 9 3 15v14l-2 3-6-1-6-3-3-7-3-23-1-10z" fill="#FEFDFD"/>
<path transform="translate(1990,127)" d="m0 0h1l1 7v15l-2 14-7 21-8 16-7 10-12 17-8 10-11 12-21 21-24 21-7 7-8 7-9 8-7 8-9 9-11 14-1-2 1-3h2l2-5 12-13 7-8 6-6 2-4h2l1-3 5-3 6-7 8-7 5-5h2l1-3h2l2-4 6-3h2v-2l8-7 9-8 6-5 7-8 7-9 4-6 6-8 16-24 8-19 4-15z" fill="#71686D"/>
<path transform="translate(1820,34)" d="m0 0h27l18 2 19 4 12 4 2 2-3 1h-8l-8-2 5 2 15 5 19 10 8 5-2 2-16-8-20-9-9-3-1-2h-7l-11-3-13-1-6-2v-2l-5-2h-14l-16 4-3-1 5-2-3-2z" fill="#0D040B"/>
<path transform="translate(470,462)" d="m0 0 6 1v2h2l1-2 4 1 3 3 5 2v2h4v2l9 2v2l5 2 1 3h3l2 2 5 2-1 3-2 1 3 3-3 2-7-3-8 1-10-8-16-13-5-4z" fill="#1E071E"/>
<path transform="translate(498,361)" d="m0 0 4 2 8 15 9 10 7 10 9 10 8 11 4 6 6 11 7 9 4 8 1 5-5-5-16-21-10-13-9-12-14-19-13-18 1-4z" fill="#260B1A"/>
<path transform="translate(1099,729)" d="m0 0 4 1 13 8 19 7 17 4h14l9-1-5 5-8 4-5 1h-12l-9-2-15-6-13-9-8-9z" fill="#030202"/>
<path transform="translate(320,703)" d="m0 0 9 3 13 8 17 12 10 8 3 2-1 3-5-1-1 2h-3l2 4-4-2-13-10-12-11-14-14z" fill="#74295C"/>
<path transform="translate(68,1198)" d="m0 0 3 3 1 17 1 8v21l-1 5-2 4-1 14v21h-2l-2 13-2 17-2-4 1-23 4-54z" fill="#75275C"/>
<path transform="translate(1360,563)" d="m0 0 6 2 5 6v17l-10 5-4-1-6-4-5-17v-2l9-2 1-2z" fill="#1D071D"/>
<path transform="translate(1259,1109)" d="m0 0 1 4v87 2 8l-1 3 1 1v15l-1 11h-2l1 9-2 3 2 1-2 3-2-4v-13l1-6v-67l1-13v-12l1-7-1-5 2-11-1-5z" fill="#3D0425"/>
<path transform="translate(353,1378)" d="m0 0 5 1v2l2 4 4 2h3l4 2v2l7 1 1 3 2 1-1 2h-6l1-3h-7l-2-1v2h-2l-1 3h-3l-1-2v3l-7 4-10-2v-2h-2v-4l-3-1v-2h2l2-5 5-2h3l1-4 1-2h2z" fill="#B62588"/>
<path transform="translate(1681,516)" d="m0 0 4 4v2l3 1v2l6-2 2-3h6l10 2v1h-9l-6-1-5 25-3 12-2 5-2-1v-6l-3 1-2-1v-13z" fill="#716A6E"/>
<path transform="translate(504,554)" d="m0 0 9 2 1-2 7 6 4 2v2l10 4 1 3h3v3l6 2 4 1 5 5 2 5-2 3-3-1v-2h-2l-1-5-1-1-9-1v-2l-5-2-9-5-1 3v-2h-2l-1 2v-2l-5 2-3-2v-3h-2l-3-5v-3h-2z" fill="#0B040A"/>
<path transform="translate(1748,96)" d="m0 0h3l2 11-3 1v3l-5 5v3h-2l-2 6-2 3h-3l-3-3h-2l-1 2h-3v6l-3 5-4 8h-2l1-6 11-24 9-13 6-6z" fill="#535354"/>
<path transform="translate(94,1179)" d="m0 0 4 1 1 6-1 7-1 2h3l1 6-2 2 1 7-2 5 2 1v4l-1 2h-2v4l2 1-2 5 1 2-4 1v3l-3-1-1-8-2-1v-4l1-5 1-2h2l-2-9-1-4 1-6-1-5h2l1-9h2z" fill="#76265C"/>
<path transform="translate(1720,966)" d="m0 0h64l11 1v1l-90 1-16 1-71 3h-30l4-2 53-3 23-1z" fill="#5E3E53"/>
<path transform="translate(571,305)" d="m0 0h8l2 2-11 2-11 4-8 4-5 2-1 2h-3v2l-9 4-11 2-9 5-9 1-1 4-2 1-1 3h-3l-1 5-1 3-1 7 2 4-1 3-6-10-1-7 10-10 8-6 28-13 19-8z" fill="#0F0309"/>
<path transform="translate(1678,952)" d="m0 0h18l38 1 7 1-1 2-10 2-17 1h-41l-16-3 2-1v-2z" fill="#030202"/>
<path transform="translate(1174,894)" d="m0 0 11 4 11 9 11 11 7 10-1 5-6-1-7-5-4-6-10-10-3-5-3-1v-3h-2l-5-6z" fill="#1D071D"/>
<path transform="translate(1967,117)" d="m0 0h2l3 9h2l5 11v5h2l-2 7 3 1v5l-3 2-1 2 1 5-3 3-7 2-3 5h-2l1-5 3-10 1-8v-28z" fill="#525253"/>
<path transform="translate(1233,666)" d="m0 0 4 2 10 6 11 4 13 7 14 3h21l10-1-3 2-12 3-5 1h-13l-6-2-12-2-15-5-4-2-5-3-8-11z" fill="#090308"/>
<path transform="translate(193,674)" d="m0 0 6 3 7 6 9 7 4 4 4 2v2l4 1 7 6 7 4 8 6 17 12 17 14 4 4h-3-2l-4-2-14-11-18-14-19-14-11-9-8-6-13-11z" fill="#A6257D"/>
<path transform="translate(1821,45)" d="m0 0h31l20 3 16 2v2l9 3 19 9 8 4v-2l-8-4-1-2 5 1 10 6 7 5v2l4 2 7 8 2 6h2l-1 3-7-6-16-13-22-12-20-8-20-5-17-2-28-1z" fill="#722E5C"/>
<path transform="translate(1881,946)" d="m0 0 10 1 15 4 21 10 12 8-1 3-5-2-9-2-20-8-8-4v-2l-5-1-10-4z" fill="#19060E"/>
<path transform="translate(1422,969)" d="m0 0 3 1-1 6-11 2h-12l-9-1v2h-11l-7-1-6-1-3-4 3-1 3 1 1-2 7-1 3 1h17l8 1 1-1h12z" fill="#1C071C"/>
<path transform="translate(431,781)" d="m0 0 5 2 11 9 8 7 3 3-1 7-4 1-4-1v-3l-4-2-2-5h-6l-4-4-4-10v-3z" fill="#1D0A13"/>
<path transform="translate(479,546)" d="m0 0 7 6 3 1 2-1v2l5-2 2 1 5 1 2 5v2h2l3 6v2h2l4 4 4-1h3l1 4-3 1-1 3h-2l-4-2-11-9-14-11-11-9z" fill="#210A1F"/>
<path transform="translate(515,381)" d="m0 0 4 1 4 6 6 7 1 4 5 3 4 6 6 10 3 3 6 10 6 8 9 18 3 9-7-7-2-6-6-11-7-9-6-12-6-7-9-12-7-8-7-9-1-2z" fill="#0D050B"/>
<path transform="translate(1093,720)" d="m0 0 1 2 4 2 4 5-2 1 6 8 10 8 10 5 12 5 7 1h12l14-4 6-5h2l1-4 10-2-4 4-6 3-4 5-9 5-16 3-15-3-13-6-9-5-12-11-6-8-4-7z" fill="#1C061A"/>
<path transform="translate(1633,942)" d="m0 0h131l84 1v1l-199 1-17 1-3-2h4z" fill="#6D385C"/>
<path transform="translate(1840,334)" d="m0 0 2 3-3 1v3l2 1-4 7-7 8-8 11-7 9h-2l1-5 5-7-3 1 1-4 9-12 3-3 1 2 2 1 1 1v-6h-2l2-4z" fill="#464043"/>
<path transform="translate(517,488)" d="m0 0h7l4 4v2l5 2 14 7 5 5 6 4 5 2 4 5 1 3 5 5-5-2-4-3v-2l-5-1-5-5-6-3-3-2v-2l-5-2-8-5-3-1v-2l-4-1-2 1-2-3-2-1v-2l-3-1z" fill="#090308"/>
<path transform="translate(1332,290)" d="m0 0 12 1 19 5 25 11 4 3-5-1-6-3h-7l-3-3v-2l-3 1-25-6h-20l4-4z" fill="#120A10"/>
<path transform="translate(134,1438)" d="m0 0m-87-5h1v8l64-2h22l-3 2-58 3h-25l-1-1z" fill="#74305E"/>
<path transform="translate(415,772)" d="m0 0h7l2 3-2 10v5l-4-2-13-10-2-4 7-1 4 2z" fill="#2E122B"/>
<path transform="translate(424,944)" d="m0 0h10v2l-16 2-14 2-7 2-10 1-7 4-4-1-2-1v-2l8-4 5-1 2 1h8l5-2 10-2h10z" fill="#B82589"/>
<path transform="translate(508,382)" d="m0 0 6 5 7 9 7 8v2l4 1 3 6 5 6 6 9-1 4-5-5-10-13-10-14-12-16z" fill="#73305D"/>
<path transform="translate(1824,32)" d="m0 0h20l25 3 26 6 26 11-3 1-1 2v-3l-5-1-12-5-19-6-22-4-12-1h-26l-2-2z" fill="#61505B"/>
<path transform="translate(1394,311)" d="m0 0 5 1 18 10 10 9 5 7-1 7-2 2v-2l-3-1 1-6h-2l-3-5v-4l-4-1-8-6-10-5v-2l-4-1-2-1z" fill="#291720"/>
<path transform="translate(1744,511)" d="m0 0 1 3-8 28-3 13-6 37-1 9h-1v-16l2-16 5-23 3-10 2-5 1-9z" fill="#71656C"/>
<path transform="translate(846,230)" d="m0 0h6l-2 6-6-1v-2h-8v3l-8 3-4 3-7 2-3 6v10l2 9-1 2h2l-1 8h-1l-4-26 2-6 4-6 5-4 13-5z" fill="#2E1824"/>
<path transform="translate(366,737)" d="m0 0 8 2 5 5 5 3 1 4-4-1-3-1-2-4-4-1 3 3v2l3 1v3l3 1-1 2-5-2-11-9-2-5h3z" fill="#440C2D"/>
<path transform="translate(738,252)" d="m0 0h8l8 2v1h-20l-13 4-2 5-5 2h-9l-3-2 7-3v-1h-5l4-2 16-4z" fill="#361F2C"/>
<path transform="translate(507,334)" d="m0 0h5l-2 4h-2l-1 4-6 7-3 3 2 17-4-2-1-8-2-1 1-7 2-4 1-4h3l1-4h2l1-4z" fill="#17030B"/>
<path transform="translate(1821,45)" d="m0 0h31l20 3 16 2v2l9 3 19 9 10 5-1 2-6-2-17-9-19-7-17-4-17-2-28-1z" fill="#6B5D66"/>
<path transform="translate(1296,512)" d="m0 0 6 1 12 8 18 13 13 10-1 2-10-7-7-4v-2l-6-2-5-4-5-2v-2l-5-2v-2l-5-1-5-4z" fill="#2C1829"/>
<path transform="translate(526,585)" d="m0 0 7 1 4 1 5 2 8 1v4l-6 5-6-2-12-9z" fill="#0A0809"/>
<path transform="translate(515,328)" d="m0 0 2 1-5 4-5 2h-3l-1 4-2 1-1 3h-3l-1 5-1 3-1 7 2 4-1 3-6-10-1-7 10-10 8-6z" fill="#52464D"/>
<path transform="translate(96,1146)" d="m0 0 2 3-1 4 1 7 1 9-3 9-6 2 1-4 1-8-1-3v-4l2-2-1-4 3-8z" fill="#75265C"/>
<path transform="translate(1664,964)" d="m0 0h66v2l-10 1-54 1-3-3z" fill="#1C061C"/>
<path transform="translate(1259,1280)" d="m0 0h1v7l-4 5-15 5h-23l1-2 13-2 8-3 6-1-1 2-6 3 13-3 2-4 3-4h2z" fill="#3C0D29"/>
<path transform="translate(70,1117)" d="m0 0h1l1 30v44l-1 9h-1l-1-7z" fill="#7F2663"/>
<path transform="translate(1967,117)" d="m0 0h2l5 12v22l-6 15-1-3 2-12v-28z" fill="#70696D"/>
<path transform="translate(478,470)" d="m0 0 3 1 5 5 2-1 1 2h2v2l4 2v2h5l2 4 4 1 2 2-5 3-5-3-13-11-9-7z" fill="#6A2754"/>
<path transform="translate(1642,882)" d="m0 0h2l-2 5-6 13-2 5-6 11-2-2-8 13-1-3 16-27z" fill="#3D2539"/>
<path transform="translate(451,859)" d="m0 0 6 4v2l4 2 5 5 1 6-3 2-4-4v-2h-3v-3l-4-2-3-4v-5z" fill="#3D0425"/>
<path transform="translate(1173,1290)" d="m0 0 11 3 4 1 12 2v1l16 1v1h-43l-1-5 1 2h7l-7-3z" fill="#502F46"/>
<path transform="translate(1472,875)" d="m0 0h2l1 8-5 20-4-4 1-13 4-10z" fill="#110D0F"/>
<path transform="translate(1905,261)" d="m0 0 2 2-3 1v3l-8 8h-2v2l-6 5-5 6h-2v2l-5 5h-3l1-4 6-5 7-8 7-6 4-5z" fill="#544F53"/>
<path transform="translate(575,524)" d="m0 0 5 1 8 4 10 8v2l2 1-6-1-6-5-2-1v2l-4-1-9-6v-2h2z" fill="#160E14"/>
<path transform="translate(498,361)" d="m0 0 4 2 8 15 9 10v2l-3-1-1-2-5-3-5-4-7-10 1-4z" fill="#230D19"/>
<path transform="translate(1890,50)" d="m0 0 7 1 15 8 12 6 2 3-2 1-16-8-18-8z" fill="#140513"/>
<path transform="translate(549,344)" d="m0 0h1l3 10 11 16 8 10 7 9-1 2-9-10-11-11-3-9-5-7-2-9z" fill="#3A2733"/>
<path transform="translate(951,513)" d="m0 0 25 1h17l-3 2-8 2-9 1-2-1h-8l-7-2-5-2z" fill="#17030B"/>
<path transform="translate(1892,948)" d="m0 0 8 1 13 5 12 6-2 2h-3v-2l-9-1-12-6-4-1v-3z" fill="#1E151B"/>
<path transform="translate(1093,720)" d="m0 0 1 2 4 2 4 5-2 1 6 8 10 8 10 5 3 2-3 1-9-4-10-8-8-8-7-12z" fill="#1B0517"/>
<path transform="translate(411,843)" d="m0 0 1 2h2v2l4 2 8 3 6 7 8 4 1 3h-3v-2l-4 1-14-11-10-8z" fill="#4C1135"/>
<path transform="translate(1266,613)" d="m0 0h21l12 5 2 2-5-1-11-3-7-1-17 3-11 3 2-3z" fill="#716A6E"/>
<path transform="translate(1849,42)" d="m0 0 16 2 6 2 7 1 4 3-10-1-20-3-27-1v-1l23-1z" fill="#613352"/>
<path transform="translate(1396,547)" d="m0 0v3l-3 4-1 4-6 1 2 2-9 2h-2l-3 3h-2l2-4 16-11z" fill="#7A265F"/>
<path transform="translate(1362,300)" d="m0 0 9 1 3 4h7l8 4 5 1v3l3 1-3 1-10-4-8-2-10-6-4-2z" fill="#11040B"/>
<path transform="translate(1990,127)" d="m0 0h1l1 7v15l-2 14-7 21-5 10h-2l2-6 4-8 5-14 2-9z" fill="#6D676B"/>
<path transform="translate(1840,334)" d="m0 0 2 3-3 1v3l2 1-4 7-7 8-2 2-1-4 2-1 1-3h3v-6h-2l2-4z" fill="#5D5059"/>
<path transform="translate(1349,293)" d="m0 0 8 1 15 6 18 8 2 2-5-1-6-3h-7l-3-3v-2l-3 1-17-6v-2z" fill="#261A23"/>
<path transform="translate(1298,975)" d="m0 0h6v3l-2 1-13 1h-16l-8-1v-1z" fill="#140514"/>
<path transform="translate(553,341)" d="m0 0h5l8 6 8 11 4 2 1 5 14-1-4 3h-6l-5 2-7-11-7-9v-2l-10-4-4 1z" fill="#604D59"/>
<path transform="translate(1624,969)" d="m0 0h18v1l-24 3h-30l4-2z" fill="#5F3350"/>
<path transform="translate(458,804)" d="m0 0 2 2 1 7-4 5-4-1-7-5 5-4 6 1z" fill="#261025"/>
<path transform="translate(513,552)" d="m0 0 5 2 11 8 16 12v3l-6-3v-3h-3l-3-3-8-4-1-2-5-3-5-4z" fill="#673B59"/>
<path transform="translate(1640,963)" d="m0 0h29v1l-5 1 2 1v2l-18 1v-3l1-1-9-1z" fill="#11030B"/>
<path transform="translate(134,1438)" d="m0 0m-22 1h22l-3 2-16 1h-27l1-2z" fill="#742D5D"/>
<path transform="translate(1015,1168)" d="m0 0 2 1-2 9-6 10-2 7-1 3h-2l1-8 6-17z" fill="#281525"/>
<path transform="translate(1476,762)" d="m0 0 2 2v11h-2v-2l-3 1v-3l-7-2-1-5 1-1h5v3l4-1z" fill="#17030B"/>
<path transform="translate(562,512)" d="m0 0 5 2 17 12-2 1-5-2-5 1-6-5-1-4-3-3z" fill="#6B3359"/>
<path transform="translate(1911,248)" d="m0 0 2 2-15 14-28 28-1-2 5-5z" fill="#5E4856"/>
<path transform="translate(699,260)" d="m0 0h5l-3 4-10 2-10 3-11 2-4-1z" fill="#6B375A"/>
<path transform="translate(830,1395)" d="m0 0h41l-4 3h-22l-11-1h-4z" fill="#3D0425"/>
<path transform="translate(1458,911)" d="m0 0 3 1-3 12-4 4-2 7-1-2v-7l-2-10 2 1 1 3 3-1z" fill="#17030B"/>
<path transform="translate(571,305)" d="m0 0h8l2 2-11 2-11 4-3 2-8-1 2-2z" fill="#32202B"/>
<path transform="translate(588,472)" d="m0 0 2 1 12 1 1 4-6 1-2-1-4 1-10-4-1-2z" fill="#190A11"/>
<path transform="translate(1015,1173)" d="m0 0h1l-1 20-2 2v-2l-6 1 1-6 6-10z" fill="#6C2353"/>
<path transform="translate(1423,329)" d="m0 0 4 2 5 7-1 7-2 2v-2l-3-1 1-6h-2l-3-5z" fill="#25131C"/>
<path transform="translate(1270,496)" d="m0 0 6 1 19 12v4l-15-9v-2l-6-2z" fill="#251823"/>
<path transform="translate(1593,942)" d="m0 0h14l-3 3-8-1h-54v-1z" fill="#603F55"/>
<path transform="translate(545,314)" d="m0 0 3 1-7 5-17 7-7 1 4-3z" fill="#5C4454"/>
<path transform="translate(492,555)" d="m0 0h3v3l5 1 1 4 5 5 2 4-4-2-16-13z" fill="#732C5C"/>
<path transform="translate(1331,390)" d="m0 0 10 3 3 2-6 3h-6v-2l-7 1z" fill="#2E1B26"/>
<path transform="translate(1235,255)" d="m0 0 9 1 9 3-3 2h-12v-2l-7 1z" fill="#24111A"/>
<path transform="translate(515,328)" d="m0 0 2 1-5 4-5 2h-3l-1 4-2 1-1 3h-3l-1 5-1 3-1 7-2-1 1-11 2-1 1-3 3-3 4-5z" fill="#75275C"/>
<path transform="translate(1820,34)" d="m0 0h11v3h-9l-16 4-3-1 5-2-3-2z" fill="#1C061C"/>
<path transform="translate(1319,527)" d="m0 0 5 1 17 13 4 3-1 2-10-7-7-4v-2l-6-2z" fill="#301D2F"/>
<path transform="translate(1463,501)" d="m0 0v3l-3 3h-2l-1 3-6 3-11 8-2-2 18-13z" fill="#802663"/>
<path transform="translate(565,377)" d="m0 0 4 2 8 10 6 5 2 6-6-6-2-1v-2l-4-2-2-5-5-1-2-4z" fill="#13030A"/>
<path transform="translate(280,731)" d="m0 0 5 1 7 7 5 2v2l4 2v2h-4v-3l-5-1-5-6-8-4z" fill="#B82589"/>
<path transform="translate(1259,1280)" d="m0 0h1v7l-4 5-5 2h-5l1-2 5-1 2-4 3-4h2z" fill="#1E0D1B"/>
<path transform="translate(1744,511)" d="m0 0 1 3-8 28h-3l4-11 1-9z" fill="#716A6E"/>
<path transform="translate(816,242)" d="m0 0 1 2-3 6v10l2 9-1 2h2l-1 8h-1l-4-26 2-6z" fill="#572F4A"/>
<path transform="translate(1173,1290)" d="m0 0 11 3 4 1 12 2v1h-17l-10-4z" fill="#3D0425"/>
<path transform="translate(1255,1256)" d="m0 0 2 2v18l-2 3h-2l1-19z" fill="#3D0425"/>
<path transform="translate(1726,125)" d="m0 0h1v8l-3 5-4 8h-2l1-6z" fill="#5A585A"/>
<path transform="translate(301,747)" d="m0 0 2 1v2h2l3 4 3 1v4 3l-8-5-3-1v-2l-3-1h2l1-2v2l5 1-1-3-3-1z" fill="#B52587"/>
<path transform="translate(558,363)" d="m0 0 4 4 7 9 9 12v3l-9-10-6-8-4-5z" fill="#624C5B"/>
<path transform="translate(649,279)" d="m0 0 2 1-1 3-6 5-1 2h3l1 6-2 2-4-9v-4z" fill="#3B2132"/>
<path transform="translate(709,259)" d="m0 0v3l-3 2h-4v2l-4 1-9 1v-2l5-2 7-1 3-3z" fill="#0C0308"/>
<path transform="translate(69,1176)" d="m0 0h3v15l-1 9h-1l-1-7z" fill="#75275C"/>
<path transform="translate(507,472)" d="m0 0 4 1 19 14 2 1-1 2-7-4-3-3-3-1v-2l-5-1-4-4v-2z" fill="#534E51"/>
<path transform="translate(507,334)" d="m0 0 3 1-5 3-5 9-2 1-2 8-2-2v-5l2-2 1-4h3l1-4h2l1-4z" fill="#090308"/>
<path transform="translate(1071,297)" d="m0 0h1l1 7 6-1 2-2-1 4-4 8-3-3-2-7z" fill="#5E545A"/>
<path transform="translate(1910,58)" d="m0 0 8 4 8 5-2 2-16-8 2-1z" fill="#190619"/>
<path transform="translate(1729,571)" d="m0 0h1v8l-3 22h-1v-16l2-13z" fill="#71686D"/>
<path transform="translate(1148,395)" d="m0 0 1 2v6l-14-2 4-2z" fill="#443B41"/>
<path transform="translate(388,751)" d="m0 0 7 5 1 2 6 2-2 2-4 1-5-6-2-1v-2l-2-1z" fill="#3D0425"/>
<path transform="translate(1795,341)" d="m0 0 13 3 6-1h3l-4 5-7-1-11-4z" fill="#716A6E"/>
<path transform="translate(513,552)" d="m0 0 5 2 10 7-1 3h-2l-1-2-5-3-5-4z" fill="#693659"/>
<path transform="translate(1628,906)" d="m0 0 1 4-1 6-2-2-8 13-1-3z" fill="#43263B"/>
<path transform="translate(593,538)" d="m0 0 9 2 1 5-4 3-3-5v-2l-3-1z" fill="#15030B"/>
<path transform="translate(1634,899)" d="m0 0 2 1-2 5-5 8-1-3 2-8z" fill="#250E24"/>
<path transform="translate(1370,300)" d="m0 0 9 3 13 6-3 1-8-4h-7l-4-5z" fill="#683D5A"/>
<path transform="translate(1332,290)" d="m0 0 12 1v1h-10v2l-11 2 4-4z" fill="#594552"/>
<path transform="translate(478,470)" d="m0 0 3 1 5 5 2-1 1 2h2v2l-4 2-11-9z" fill="#6B2E58"/>
<path transform="translate(553,341)" d="m0 0h5l8 6 5 7h-3l-4-5v-2l-10-4-4 1z" fill="#674D5F"/>
<path transform="translate(1440,657)" d="m0 0 4 5 5 9v2h-3l-6-11z" fill="#2C1C24"/>
<path transform="translate(1334,461)" d="m0 0 2 1-6 3h-11l-4-2 7-1h10z" fill="#65545F"/>
<path transform="translate(754,389)" d="m0 0 3 1v2h3v3l3 1-10 1-2-3 4 1z" fill="#695F65"/>
<path transform="translate(576,530)" d="m0 0 10 5v-2l5 2v3l-7-1-8-5z" fill="#17030B"/>
<path transform="translate(389,750)" d="m0 0 5 2 9 7-2 1-6-2-5-5z" fill="#6D375C"/>
<path transform="translate(682,265)" d="m0 0h4v3l-16 3-4-1z" fill="#5C4855"/>
<path transform="translate(1502,469)" d="m0 0m-1 1m-1 1m-1 1m-1 1m-1 1m-1 1 4 1-2 4-5 1-3 1 2-4z" fill="#7C2660"/>
<path transform="translate(1330,458)" d="m0 0 5 1-1 3-4 1h-10l-1-2 10-2z" fill="#10030B"/>
<path transform="translate(705,282)" d="m0 0 6 1 4 3-1 2-5-3-4-1-2 10h-1v-10z" fill="#61545D"/>
<path transform="translate(1696,520)" d="m0 0h6l10 2v1h-9l-6-1v2l-4 3-4-2 5-2z" fill="#696467"/>
<path transform="translate(498,338)" d="m0 0 2 1-2 3h-2l-1 4h-3l-1 4h-2l-1 2 1-5z" fill="#5B5659"/>
<path transform="translate(1093,720)" d="m0 0 1 2 4 2 4 5-4 1-4-4-2-4z" fill="#180411"/>
<path transform="translate(734,708)" d="m0 0 2 1-2 10-2 4h-2l1-8z" fill="#423C3F"/>
<path transform="translate(479,546)" d="m0 0 7 6 4 1 1 3-6-1-7-6z" fill="#4D1637"/>
<path transform="translate(1307,418)" d="m0 0v3l-4 3-1 5-5 1v-4z" fill="#2F1C26"/>
<path transform="translate(495,356)" d="m0 0 2 1 3 9-1 3-3-2-1-8-2-1z" fill="#120C11"/>
<path transform="translate(1840,334)" d="m0 0 2 3-3 1-1 4-5 3h-2l2-4z" fill="#423C3F"/>
<path transform="translate(515,328)" d="m0 0 2 1-5 4-5 2h-3v2l-4 1 5-5z" fill="#663E59"/>
<path transform="translate(1612,942)" d="m0 0h21v1l-12 1v1h-7v-2z" fill="#75275C"/>
<path transform="translate(585,476)" d="m0 0h16l2 2-6 1-2-1-4 1-6-2z" fill="#65515E"/>
<path transform="translate(846,230)" d="m0 0h6l-2 6-6-1v-4z" fill="#1A1017"/>
<path transform="translate(1939,63)" d="m0 0 5 2 9 7h-3l-6-3-5-4z" fill="#646063"/>
<path transform="translate(1008,1182)" d="m0 0 2 4-4 12h-2l1-8z" fill="#372033"/>
<path transform="translate(377,742)" d="m0 0 7 5 1 4-4-1-3-1-2-5z" fill="#3D0425"/>
<path transform="translate(1254,487)" d="m0 0 5 1 9 5v2l-5-1v-2l-7-2v-2z" fill="#351F32"/>
<path transform="translate(723,257)" d="m0 0 4 1-3 2-4 6h-3v-2h2l1-5z" fill="#080207"/>
<path transform="translate(1450,921)" d="m0 0 1 2 4-1 1 2-2 4-2 7-1-2v-7z" fill="#1D071D"/>
<path transform="translate(1284,613)" d="m0 0 9 2 8 4-3 1-13-4z" fill="#6B6568"/>
<path transform="translate(573,386)" d="m0 0 8 6 4 6-1 2-3-5-4-2v-2l-4-2z" fill="#2F242A"/>
<path transform="translate(545,314)" d="m0 0 3 1-7 5-4 2-3-1 4-4z" fill="#6A385A"/>
<path transform="translate(1343,295)" d="m0 0h8l11 4-3 1-16-4z" fill="#17030B"/>
<path transform="translate(1409,612)" d="m0 0 5 3 4 7-5-2-4-5z" fill="#341E31"/>
<path transform="translate(1296,512)" d="m0 0 6 1 3 2-1 3-4-1-4-3z" fill="#241523"/>
<path transform="translate(629,435)" d="m0 0 1 4-2 6-4-2-7-4 3-1 7 4z" fill="#62535D"/>
<path transform="translate(1396,380)" d="m0 0 2 2 2-2 4 1-6 5-3-2v-2l-2-1z" fill="#513D4A"/>
<path transform="translate(1235,255)" d="m0 0h6l1 2-8 3-3-1z" fill="#2C2328"/>
<path transform="translate(1861,36)" d="m0 0 10 1 4 2-7 1v-2h-2l-1 3-4-3z" fill="#1B061A"/>
<path transform="translate(1658,964)" d="m0 0h6l2 4h-10z" fill="#0A0309"/>
<path transform="translate(1596,943)" d="m0 0 7 1-1 2-8 1-3-1v-2z" fill="#1D071D"/>
<path transform="translate(448,872)" d="m0 0 6 2v2h3v3l3 1-1 2-10-8z" fill="#3D0425"/>
<path transform="translate(1449,511)" d="m0 0 2 2-11 8-2-2z" fill="#7B2660"/>
<path transform="translate(605,394)" d="m0 0 3 1h-2v6 3l-5-6v-2z" fill="#5D4F58"/>
<path transform="translate(1880,50)" d="m0 0h8v2l6 2v1l-8-1-3-1v-2z" fill="#604A59"/>
<path transform="translate(1258,1284)" d="m0 0h2l-1 5-3 3-3-1 2-4 3-1z" fill="#251320"/>
<path transform="translate(1177,745)" d="m0 0h2v3l-8 6-2-1 4-4-2-2z" fill="#17030C"/>
<path transform="translate(1451,677)" d="m0 0 3 4 2 6h-3l-3-5z" fill="#2C2025"/>
<path transform="translate(879,289)" d="m0 0 17 2v1l-13 1z" fill="#4E3B46"/>
<path transform="translate(1783,40)" d="m0 0 4 1-2 3-3 1h-7l3-3z" fill="#1D071D"/>
<path transform="translate(1881,946)" d="m0 0 10 1-2 4-8-2z" fill="#2E1A24"/>
<path transform="translate(1817,369)" d="m0 0h3l-2 4-3 4h-2l1-5z" fill="#514C4E"/>
<path transform="translate(1850,330)" d="m0 0v3l-9 11-1-2 1-3h2l2-4z" fill="#6E686C"/>
<path transform="translate(646,298)" d="m0 0 4 1 1 7-2 2z" fill="#231A21"/>
<path transform="translate(819,242)" d="m0 0h5l-2 1-1 3-5 2-1-2z" fill="#0E030B"/>
<path transform="translate(1878,46)" d="m0 0 8 2 4 2-2 2-9-3z" fill="#0A0309"/>
<path transform="translate(1927,56)" d="m0 0 5 2 7 4-4 1-8-5z" fill="#615E60"/>
</svg>
